<svg xmlns="http://www.w3.org/2000/svg" viewBox="0 0 512 512">
  <path fill="#0077cc" d="M400 96H112c-26.51 0-48 21.49-48 48v288c0 26.51 21.49 48 48 48h288c26.51 0 48-21.49 48-48V144c0-26.51-21.49-48-48-48zm0 336H112V144h288v288z"/>
  <path fill="#0077cc55" d="M112 144v288h288V144H112zm144 240c-53.02 0-96-42.98-96-96s42.98-96 96-96 96 42.98 96 96-42.98 96-96 96z"/>
  <path fill="#0077cc" d="M256 192c-53.02 0-96 42.98-96 96s42.98 96 96 96 96-42.98 96-96-42.98-96-96-96zm0 160c-35.29 0-64-28.71-64-64s28.71-64 64-64 64 28.71 64 64-28.71 64-64 64z"/>
</svg> 